<?xml version="1.0" encoding="UTF-8"?>
<svg xmlns="http://www.w3.org/2000/svg" xmlns:xlink="http://www.w3.org/1999/xlink"
     width="950.0" height="1100.0" viewBox="0 0 950.0 1100.0">
<defs>
</defs>
<circle cx="75.0" cy="500.0" r="25.0" fill="black" />
<circle cx="275.0" cy="500.0" r="25.0" fill="black" />
<circle cx="475.0" cy="500.0" r="25.0" fill="black" />
<circle cx="675.0" cy="500.0" r="25.0" fill="black" />
<circle cx="875.0" cy="500.0" r="25.0" fill="black" />
<path d="M75.0,500.0 L175.0,400.0 L275.0,500.0" stroke="black" stroke-width="25.0" fill="none" />
<path d="M475.0,500.0 L575.0,400.0 L675.0,500.0" stroke="black" stroke-width="25.0" fill="none" />
<path d="M175.0,400.0 L375.0,200.0 L575.0,400.0" stroke="black" stroke-width="25.0" fill="none" />
<path d="M375.0,200.0 L475.0,100.0 L875.0,500.0" stroke="black" stroke-width="25.0" fill="none" />
<circle cx="75.0" cy="600.0" r="25.0" fill="black" />
<circle cx="275.0" cy="600.0" r="25.0" fill="black" />
<circle cx="475.0" cy="600.0" r="25.0" fill="black" />
<circle cx="675.0" cy="600.0" r="25.0" fill="black" />
<circle cx="875.0" cy="600.0" r="25.0" fill="black" />
<path d="M275.0,600.0 L375.0,700.0 L475.0,600.0" stroke="black" stroke-width="25.0" fill="none" />
<path d="M675.0,600.0 L775.0,700.0 L875.0,600.0" stroke="black" stroke-width="25.0" fill="none" />
<path d="M375.0,700.0 L575.0,900.0 L775.0,700.0" stroke="black" stroke-width="25.0" fill="none" />
<path d="M75.0,600.0 L475.0,1000.0 L575.0,900.0" stroke="black" stroke-width="25.0" fill="none" />
</svg>